# xmcd
#
# Track frame offsets: 
#        150
#        16655
#        28642
#        45517
#        64742
#        77050
#        91550
#        117277
#        127987
#        143262
#        156170
#        170495
#        183647
#        210127
#
# Disc length: 3139 seconds
#
# Revision: 0
# Processed by: cddbd v1.5.1PL0 Copyright (c) Steve Scherf et al.
# Submitted via: ExactAudioCopy v0.95b3
#
DISCID=9f0c410e
DTITLE=Woody Garrett - Mr. Boogie Woogie Nighthawk
DYEAR=1992
DGENRE=Blues
TTITLE0=Ride Your Pony
TTITLE1=Flat Foot Sam
TTITLE2=Kiddeo
TTITLE3=I'll Take Cary of You
TTITLE4=Well- Well-a Baby-la
TTITLE5=Party At My House
TTITLE6=Tears Make My Eyes Go Blind
TTITLE7=Boogie Woogie Nighthawk
TTITLE8=Oh Pretty Woman
TTITLE9=Gimme Back My Wig
TTITLE10=Flat Foot Sam
TTITLE11=Johnny B. Goode
TTITLE12=Boogie Thing
TTITLE13=Fever
EXTD=
EXTT0=
EXTT1=
EXTT2=
EXTT3=
EXTT4=
EXTT5=
EXTT6=
EXTT7=
EXTT8=
EXTT9=
EXTT10=
EXTT11=
EXTT12=
EXTT13=
PLAYORDER=
